# Blender 4.0.2
# www.blender.org
mtllib FirstSecondStairs.mtl
o Plane
v 4.743652 -3.597584 3.866064
v 1.592094 -3.597584 -0.748959
v 3.803547 -3.597584 -0.675630
v 1.367781 -3.597584 3.792734
v 1.367781 -3.597584 1.663091
v -1.180508 -3.597584 3.792734
v -1.180508 -3.597584 1.663091
v -2.852899 -3.597584 5.112362
v -4.745911 -3.594954 4.749676
v -2.852899 -3.597584 5.112362
v -2.852899 -3.597584 6.191030
v -4.745911 -3.594954 5.828342
v 4.743652 -3.597584 2.065106
v 4.743652 -3.597584 3.492398
v 6.070540 -3.597584 2.065106
v 6.070540 -3.597584 3.492398
v 4.743652 -3.597584 1.057131
v 5.103143 -3.597584 -0.618341
v 5.103143 -3.597584 1.057131
v 4.030952 -1.556931 -4.213011
v 5.330547 -1.556931 -4.155722
v 4.030952 -1.556931 -4.213011
v 5.330547 -1.556931 -4.155722
v 4.030952 -1.556931 -4.213011
v 5.330547 -1.556931 -4.155722
v 4.030952 -1.556931 -4.213011
v 5.330547 -1.556931 -4.155722
v 3.701300 -1.556931 -4.425464
v 3.701300 -1.556931 -5.690396
v 5.347405 -1.548901 -5.679757
v 3.701300 -1.556931 -4.425464
v 3.701300 -1.556931 -5.690396
v 1.939151 -1.556931 -4.425464
v 1.939151 -1.556931 -5.690396
v 3.096680 -1.556931 -4.425464
v 1.772307 -0.269287 -1.902626
v 2.929836 -0.269287 -1.902626
v 1.772307 -0.269287 1.011327
v 2.716201 -0.269287 1.011327
v 3.271832 -0.269287 -0.611020
v 5.162099 -0.269287 1.011327
v 5.162099 -0.269287 -0.617639
v 3.075961 -3.597584 -0.712295
v 1.592094 -3.597584 -0.748959
v 3.075961 -3.597584 -0.712295
v 1.592094 -3.597584 -1.615277
v 3.075961 -3.597584 -1.578612
v 3.828873 -0.269287 1.011327
v 2.716201 -0.269287 1.851751
v 3.828873 -0.269287 1.851751
vn -0.0000 1.0000 -0.0000
vn 0.0008 1.0000 0.0004
vn 0.0014 1.0000 -0.0000
vn -0.0220 0.8666 0.4985
vn -0.0026 1.0000 0.0027
vn -0.0000 0.8907 -0.4546
vt 0.000172 0.078753
vt 0.197791 0.000172
vt 0.332158 0.338083
vt 0.134539 0.416664
vt 0.233738 0.924759
vt 0.100266 0.687122
vt 0.133643 0.964560
vt 0.000172 0.726923
vt 0.000000 1.000000
vt 0.000000 0.500000
vt 0.000000 0.000000
vt 1.000000 0.000000
vt 1.000000 0.250000
vt 1.000000 0.500000
vt 1.000000 0.750000
vt 1.000000 1.000000
vt 0.500000 1.000000
vt 0.969324 0.403143
vt 0.826792 0.403143
vt 0.826792 0.213793
vt 0.969324 0.213793
vt 0.999828 0.588941
vt 0.826792 0.454786
vt 0.826792 0.403486
vt 0.994107 0.403486
vt 0.332502 0.152365
vt 0.335599 0.000172
vt 0.570394 0.007616
vt 0.565821 0.133851
vt 0.518042 0.153351
vt 0.821691 0.016718
vt 0.817119 0.142954
vt 0.652045 0.136974
vt 0.826448 0.543140
vt 0.661375 0.537160
vt 0.815915 0.833942
vt 0.681308 0.829066
vt 0.607934 0.664292
vt 0.522631 0.823319
vt 0.332502 0.816432
vt 0.338390 0.653867
vt 0.913291 0.001667
vt 0.913291 0.213450
vt 0.826792 0.211954
vt 0.826792 0.000172
vt 0.678270 0.912937
vt 0.519593 0.907190
s 0
f 4/1/1 5/2/1 7/3/1 6/4/1
f 6/4/2 7/3/2 9/5/2 8/6/2
f 8/6/3 9/5/3 12/7/3 11/8/3
f 2/9/1 5/10/1 4/11/1 1/12/1 14/13/1 13/14/1 17/15/1 3/16/1 43/17/1
f 13/18/1 14/19/1 16/20/1 15/21/1
f 3/22/1 17/23/1 19/24/1 18/25/1
f 3/16/4 18/16/4 21/16/4 20/16/4
f 22/11/1 23/11/1 25/11/1 24/11/1
f 27/26/5 30/27/5 29/28/5 28/29/5 26/30/5
f 28/29/1 29/28/1 34/31/1 33/32/1 35/33/1
f 35/33/6 33/32/6 36/34/6 37/35/6
f 37/35/1 36/34/1 38/36/1 39/37/1 40/38/1
f 40/38/1 39/37/1 48/39/1 41/40/1 42/41/1
f 2/9/1 43/17/1 45/17/1 44/9/1
f 44/42/1 45/43/1 47/44/1 46/45/1
f 48/39/1 39/37/1 49/46/1 50/47/1
l 10 8
l 31 28
l 29 32
