# Blender 3.6.1
# www.blender.org
mtllib SecondFloorStairsTop.mtl
o Plane
v -1.867770 -0.841300 -1.576285
v 0.216907 -0.841300 -1.576285
v -1.867770 -0.841300 -3.576285
v 0.216907 -0.841300 -3.576285
v 1.703624 -0.841300 -1.576285
v 1.703624 -0.841300 -3.576285
v 0.216907 -0.841300 -1.052850
v 1.703624 -0.841300 -1.052850
v 0.216907 -2.707865 2.013020
v 1.703624 -2.707865 2.013020
v 0.216907 -2.707865 2.246612
v 1.703624 -2.707865 2.246612
v 0.216907 -2.707865 3.588393
v 1.703624 -2.707865 3.588393
v -1.939490 -2.707865 2.246612
v -1.939490 -2.707865 3.588393
v -0.825432 -0.841300 -3.576285
v 0.216907 -0.841300 -4.494907
v -0.825432 -0.841300 -4.494907
v 0.569323 -0.841300 -3.576285
v 0.569323 -0.841300 -4.494907
vn -0.0000 1.0000 -0.0000
vn -0.0000 0.8542 0.5200
vt 0.132825 0.182977
vt 0.308302 0.361565
vt 0.175547 0.492008
vt 0.000070 0.313420
vt 0.354228 0.408305
vt 0.221473 0.538747
vt 0.669155 0.728815
vt 0.536400 0.859257
vt 0.689650 0.749673
vt 0.556895 0.880116
vt 0.807377 0.869486
vt 0.674622 0.999929
vt 0.882204 0.560473
vt 0.999930 0.680287
vt 0.225900 0.091524
vt 0.318974 0.000070
vt 0.494452 0.178658
vt 0.052226 0.100950
vt 0.145301 0.009496
vt 0.101356 0.213898
vt 0.020758 0.131870
s 0
f 4/1/1 2/2/1 5/3/1 6/4/1
f 5/3/1 2/2/1 7/5/1 8/6/1
f 8/6/2 7/5/2 9/7/2 10/8/2
f 10/8/1 9/7/1 11/9/1 12/10/1
f 12/10/1 11/9/1 13/11/1 14/12/1
f 13/11/1 11/9/1 15/13/1 16/14/1
f 2/2/1 4/1/1 17/15/1 3/16/1 1/17/1
f 17/15/1 4/1/1 18/18/1 19/19/1
f 18/18/1 4/1/1 20/20/1 21/21/1
